<?xml version="1.0" encoding="UTF-8"?>
<svg xmlns="http://www.w3.org/2000/svg" xmlns:xlink="http://www.w3.org/1999/xlink" viewBox="0 0 24 24" width="24px" height="24px">
<g id="surface98445393">
<path style=" stroke:none;fill-rule:nonzero;fill:rgb(100%,100%,100%);fill-opacity:1;" d="M 20.304688 2.984375 C 20.015625 2.996094 19.75 3.078125 19.515625 3.171875 C 19.300781 3.257812 18.527344 3.582031 17.296875 4.097656 C 16.066406 4.613281 14.433594 5.296875 12.699219 6.03125 C 9.222656 7.492188 5.3125 9.136719 3.3125 9.980469 C 3.242188 10.007812 2.964844 10.09375 2.65625 10.328125 C 2.347656 10.5625 2.003906 11.078125 2.003906 11.636719 C 2.003906 12.089844 2.230469 12.550781 2.503906 12.8125 C 2.773438 13.074219 3.050781 13.199219 3.28125 13.292969 C 3.957031 13.558594 6.042969 14.394531 6.949219 14.753906 C 7.265625 15.707031 8.011719 17.949219 8.1875 18.5 C 8.328125 18.949219 8.464844 19.242188 8.660156 19.488281 C 8.753906 19.609375 8.867188 19.722656 9.011719 19.808594 C 9.0625 19.84375 9.125 19.867188 9.183594 19.894531 C 9.191406 19.894531 9.199219 19.898438 9.210938 19.902344 L 9.1875 19.894531 C 9.203125 19.902344 9.21875 19.910156 9.238281 19.917969 C 9.265625 19.929688 9.285156 19.925781 9.324219 19.9375 C 9.460938 19.976562 9.597656 20.003906 9.726562 20.003906 C 10.269531 20.003906 10.601562 19.710938 10.601562 19.710938 L 10.625 19.695312 L 12.972656 17.707031 L 15.847656 20.367188 C 15.898438 20.441406 16.308594 20.996094 17.261719 20.996094 C 17.828125 20.996094 18.28125 20.71875 18.570312 20.421875 C 18.855469 20.128906 19.035156 19.828125 19.117188 19.417969 L 19.117188 19.410156 C 19.171875 19.121094 21.933594 5.265625 21.933594 5.265625 L 21.925781 5.289062 C 22.011719 4.90625 22.035156 4.535156 21.9375 4.160156 C 21.835938 3.785156 21.5625 3.414062 21.234375 3.222656 C 20.902344 3.03125 20.589844 2.972656 20.304688 2.984375 Z M 19.90625 5.171875 C 19.800781 5.71875 17.34375 18.058594 17.183594 18.878906 L 14.328125 16.238281 C 13.59375 15.558594 12.445312 15.535156 11.679688 16.179688 L 10.222656 17.414062 L 11 14.375 C 11 14.375 16.363281 8.945312 16.6875 8.628906 C 16.945312 8.378906 17 8.289062 17 8.199219 C 17 8.085938 16.941406 8 16.800781 8 C 16.675781 8 16.507812 8.121094 16.417969 8.175781 C 15.265625 8.890625 10.351562 11.695312 7.96875 13.046875 C 7.878906 12.996094 7.792969 12.941406 7.695312 12.902344 C 6.910156 12.585938 5.410156 11.984375 4.53125 11.636719 C 6.605469 10.761719 10.160156 9.265625 13.472656 7.871094 C 15.210938 7.140625 16.839844 6.457031 18.070312 5.941406 C 19.109375 5.507812 19.648438 5.28125 19.910156 5.171875 Z M 17.152344 19.023438 L 17.15625 19.023438 C 17.152344 19.023438 17.152344 19.03125 17.152344 19.03125 C 17.152344 19.023438 17.152344 19.03125 17.152344 19.023438 Z M 17.152344 19.023438 "/>
</g>
</svg>
