<?xml version="1.0" encoding="UTF-8"?>
<svg xmlns="http://www.w3.org/2000/svg" xmlns:xlink="http://www.w3.org/1999/xlink" viewBox="0 0 24 24" width="24px" height="24px">
<g id="surface98438128">
<path style=" stroke:none;fill-rule:nonzero;fill:rgb(100%,100%,100%);fill-opacity:1;" d="M 19 3 L 5 3 C 3.894531 3 3 3.894531 3 5 L 3 19 C 3 20.105469 3.894531 21 5 21 L 19 21 C 20.105469 21 21 20.105469 21 19 L 21 5 C 21 3.894531 20.105469 3 19 3 Z M 17.90625 15.683594 L 16.171875 15.707031 C 16.171875 15.707031 15.796875 15.78125 15.308594 15.441406 C 14.660156 14.996094 14.046875 13.835938 13.570312 13.988281 C 13.085938 14.140625 13.101562 15.1875 13.101562 15.1875 C 13.101562 15.1875 13.105469 15.371094 12.992188 15.488281 C 12.875 15.617188 12.640625 15.605469 12.640625 15.605469 L 11.863281 15.605469 C 11.863281 15.605469 10.148438 15.746094 8.636719 14.171875 C 6.992188 12.457031 5.535156 9.066406 5.535156 9.066406 C 5.535156 9.066406 5.453125 8.851562 5.542969 8.742188 C 5.644531 8.621094 5.925781 8.621094 5.925781 8.621094 L 7.78125 8.609375 C 7.78125 8.609375 7.957031 8.640625 8.082031 8.734375 C 8.183594 8.808594 8.242188 8.953125 8.242188 8.953125 C 8.242188 8.953125 8.542969 9.714844 8.941406 10.402344 C 9.71875 11.746094 10.078125 12.039062 10.34375 11.894531 C 10.726562 11.6875 10.609375 9.996094 10.609375 9.996094 C 10.609375 9.996094 10.617188 9.386719 10.417969 9.113281 C 10.261719 8.898438 9.96875 8.835938 9.839844 8.820312 C 9.734375 8.804688 9.90625 8.5625 10.128906 8.453125 C 10.464844 8.289062 11.054688 8.28125 11.75 8.285156 C 12.292969 8.292969 12.449219 8.324219 12.664062 8.378906 C 13.304688 8.53125 13.085938 9.132812 13.085938 10.566406 C 13.085938 11.027344 13.003906 11.671875 13.335938 11.886719 C 13.476562 11.976562 13.824219 11.898438 14.695312 10.417969 C 15.105469 9.71875 15.414062 8.890625 15.414062 8.890625 C 15.414062 8.890625 15.484375 8.746094 15.589844 8.683594 C 15.695312 8.617188 15.84375 8.636719 15.84375 8.636719 L 17.796875 8.625 C 17.796875 8.625 18.382812 8.554688 18.480469 8.820312 C 18.578125 9.101562 18.261719 9.75 17.460938 10.816406 C 16.152344 12.566406 16.003906 12.402344 17.09375 13.414062 C 18.132812 14.382812 18.347656 14.851562 18.386719 14.910156 C 18.816406 15.628906 17.90625 15.683594 17.90625 15.683594 Z M 17.90625 15.683594 "/>
</g>
</svg>
